<svg width="62" height="62" viewBox="0 0 62 62" fill="none" xmlns="http://www.w3.org/2000/svg">
<path d="M31 62C48.1208 62 62 48.1208 62 31C62 13.8792 48.1208 0 31 0C13.8792 0 0 13.8792 0 31C0 48.1208 13.8792 62 31 62Z" fill="url(#paint0_linear_1_213)"/>
<path d="M41.1813 37.2715C41.2853 36.6022 41.2276 35.9176 41.013 35.2751C40.7984 34.6326 40.4331 34.0508 39.9476 33.5784C39.448 33.1241 38.9232 32.6984 38.3756 32.3033C38.4607 32.274 38.5214 32.2421 38.5764 32.2277C42.0065 31.4923 42.9893 26.7645 41.2207 24.584C40.5141 23.7217 39.6396 23.0122 38.6502 22.4985C37.9467 22.1294 37.2304 21.8079 36.4926 21.4807C36.8549 20.1294 37.3773 18.2783 37.7782 16.7829L34.9802 16.0327C34.5612 17.4982 34.0762 19.3071 33.696 20.6276L31.4286 20.0196C31.7844 18.6927 32.2939 16.8893 32.6884 15.4182L29.865 14.6612C29.4392 16.152 28.9414 18.0087 28.5618 19.3273C26.6387 18.7856 24.7802 18.2873 22.8571 17.7456C22.5788 18.7834 22.2958 19.7417 22.0241 20.7552C22.4339 20.8651 22.7961 20.9622 23.1274 21.0771C23.4896 21.1742 23.8508 21.271 24.1821 21.3859C24.3915 21.4327 24.5884 21.524 24.7594 21.6536C24.9304 21.7833 25.0715 21.9482 25.1731 22.1372C25.2747 22.3262 25.3344 22.5349 25.3481 22.7491C25.3619 22.9632 25.3294 23.1778 25.2528 23.3783C24.1484 27.4004 23.0137 31.4416 21.8849 35.4572C21.6455 36.3499 21.1685 36.5841 20.3 36.3513L18.4181 35.8467C17.9212 36.9293 17.4365 37.9629 16.9396 39.0454L22.6381 40.6505C22.2499 42.0982 21.7341 43.9249 21.3266 45.4447L24.149 46.2014C24.5808 44.6882 25.0596 42.9026 25.4655 41.4858C26.2554 41.7236 26.9722 41.9419 27.7137 42.1658C27.3255 43.6135 26.829 45.3682 26.4348 46.8383L29.2572 47.5951C29.689 46.0818 30.1678 44.2963 30.5672 42.9038C30.6673 42.9045 30.7422 42.9246 30.8217 42.9198C32.2312 43.065 33.6383 43.3129 35.026 43.3449C35.9072 43.393 36.787 43.2285 37.5913 42.8653C38.3955 42.502 39.1006 41.9506 39.6471 41.2577C40.5145 40.0949 41.0452 38.7158 41.1813 37.2715ZM30.5592 23.3555C32.3204 23.8277 34.0719 24.1419 35.4704 25.2932C35.9019 25.594 36.2223 26.0285 36.3824 26.5295C36.5425 27.0305 36.5332 27.5702 36.3561 28.0655C36.1957 28.5855 35.8711 29.0395 35.431 29.3597C34.991 29.6798 34.4591 29.8488 33.9149 29.8414C32.23 29.8485 30.5578 29.549 28.98 28.9576C29.5202 27.1374 30.012 25.3032 30.5592 23.3555ZM32.9336 39.0946C31.2222 39.2532 29.4966 39.0545 27.866 38.5113C27.4074 38.3883 26.9554 38.241 26.4491 38.1053C27.0362 36.0128 27.6103 33.9689 28.1965 31.8762C30.3442 32.452 32.5118 32.8526 34.2725 34.2806C34.7087 34.6022 35.0369 35.0488 35.2134 35.5612C35.3899 36.0736 35.4065 36.6276 35.2609 37.1496C35.1153 37.6716 34.8143 38.137 34.3981 38.4841C33.9818 38.8311 33.4698 39.0433 32.9301 39.0927L32.9336 39.0946Z" fill="white"/>
<defs>
<linearGradient id="paint0_linear_1_213" x1="48.67" y1="56.668" x2="13.702" y2="6.014" gradientUnits="userSpaceOnUse">
<stop stop-color="#FE805E"/>
<stop offset="1" stop-color="#FECE20"/>
</linearGradient>
</defs>
</svg>
