<svg width="19" height="22" viewBox="0 0 19 22" fill="none" xmlns="http://www.w3.org/2000/svg">
    <path d="M9.5 11.0006C12.4984 11.0006 14.9286 8.53796 14.9286 5.50032C14.9286 2.46268 12.4984 0 9.5 0C6.50156 0 4.07143 2.46268 4.07143 5.50032C4.07143 8.53796 6.50156 11.0006 9.5 11.0006ZM9.5 1.37508C11.7452 1.37508 13.5714 3.22542 13.5714 5.50032C13.5714 7.77479 11.7452 9.62556 9.5 9.62556C7.25478 9.62556 5.42857 7.7735 5.42857 5.50032C5.42857 3.22542 7.25647 1.37508 9.5 1.37508ZM11.6502 13.0633H7.34978C3.2915 13.0633 0 16.3978 0 20.5102C0 21.3327 0.658214 22 1.46996 22H17.5309C18.3426 22.0013 19 21.3352 19 20.5102C19 16.3978 15.7089 13.0633 11.6502 13.0633ZM17.5283 20.6262H1.46996C1.40804 20.6262 1.35714 20.5746 1.35714 20.5102C1.35714 17.1627 4.04598 14.4383 7.34978 14.4383H11.646C14.954 14.4383 17.6429 17.1627 17.6429 20.5102C17.6429 20.5746 17.592 20.6262 17.5283 20.6262Z" fill="#838DA7"/>
</svg>
