<svg width="21" height="21" viewBox="0 0 21 21" fill="none" xmlns="http://www.w3.org/2000/svg">
<path d="M20.8062 19.8803L15.0027 14.0766C16.2824 12.5836 17.0247 10.6518 17.0247 8.53125C17.0247 3.81855 13.2051 0 8.49391 0C3.78268 0 0 3.81979 0 8.53125C0 13.2427 3.81919 17.0625 8.49391 17.0625C10.6135 17.0625 12.5481 16.2848 14.0389 15.0056L19.8423 20.8093C20.0064 20.9344 20.1746 21 20.3427 21C20.5109 21 20.6785 20.9359 20.8066 20.8077C21.0645 20.5529 21.0645 20.1346 20.8062 19.8803ZM8.53082 15.75C4.51559 15.75 1.31244 12.5098 1.31244 8.53125C1.31244 4.55273 4.51559 1.3125 8.53082 1.3125C12.546 1.3125 15.7492 4.51582 15.7492 8.53125C15.7492 12.5467 12.5091 15.75 8.53082 15.75Z" fill="#838DA7"/>
</svg>
